<?xml version="1.0" standalone="no"?><svg xmlns="http://www.w3.org/2000/svg" viewBox="0 0 1440 320"><path fill="#000b76" fill-opacity="1" d="M0,288L24,282.7C48,277,96,267,144,245.3C192,224,240,192,288,192C336,192,384,224,432,250.7C480,277,528,299,576,261.3C624,224,672,128,720,96C768,64,816,96,864,117.3C912,139,960,149,1008,181.3C1056,213,1104,267,1152,250.7C1200,235,1248,149,1296,149.3C1344,149,1392,235,1416,277.3L1440,320L1440,0L1416,0C1392,0,1344,0,1296,0C1248,0,1200,0,1152,0C1104,0,1056,0,1008,0C960,0,912,0,864,0C816,0,768,0,720,0C672,0,624,0,576,0C528,0,480,0,432,0C384,0,336,0,288,0C240,0,192,0,144,0C96,0,48,0,24,0L0,0Z"></path></svg>